<svg width="372" height="372" viewBox="0 0 327 372" fill="none" xmlns="http://www.w3.org/2000/svg">
  <path d="M245.737 1.72319C294.652 -0.558731 328.428 26.4673 326.262 77.1569C323.507 141.641 252.374 122.49 249.683 183.861C247.611 231.079 285.153 231.257 310.96 256.82C322.375 268.129 327.441 287.938 326.382 303.621C325.188 324.025 315.632 343.034 299.969 356.166C284.52 369.09 266.306 372.706 246.697 370.985L133.096 257.689C124.842 249.423 116.227 240.227 107.892 232.199C50.4867 176.897 105.007 140.984 145.985 100.525L245.737 1.72319Z" fill="url(#paint0_linear)"/>
  <path d="M245.737 1.72319C294.652 -0.558731 328.428 26.4673 326.262 77.1569C323.507 141.641 252.374 122.49 249.683 183.861C247.611 231.079 285.153 231.257 310.96 256.82C322.375 268.129 327.441 287.938 326.382 303.621C325.188 324.025 315.632 343.034 299.969 356.166C284.52 369.09 266.306 372.706 246.697 370.985L133.096 257.689C124.842 249.423 116.227 240.227 107.892 232.199C50.4867 176.897 105.007 140.984 145.985 100.525L245.737 1.72319Z" fill="url(#paint1_linear)"/>
  <path d="M0.890164 166.009C4.58505 170.081 5.22015 173.918 8.00177 177.849C12.9201 184.796 20.3936 196.602 26.2522 202.53C45.0688 221.575 64.4713 240.517 83.5045 259.344C121.443 296.285 158.82 333.798 195.626 371.869C161.575 371.714 127.523 371.862 93.474 372.317C66.9994 372.556 42.3905 374.242 22.1782 353.584C-4.29893 326.529 0.648941 290.678 0.589862 256.321C0.304314 226.218 0.405226 196.11 0.890164 166.009Z" fill="url(#paint2_linear)"/>
  <path d="M0.890164 166.009C4.58505 170.081 5.22015 173.918 8.00177 177.849C12.9201 184.796 20.3936 196.602 26.2522 202.53C45.0688 221.575 64.4713 240.517 83.5045 259.344C121.443 296.285 158.82 333.798 195.626 371.869C161.575 371.714 127.523 371.862 93.474 372.317C66.9994 372.556 42.3905 374.242 22.1782 353.584C-4.29893 326.529 0.648941 290.678 0.589862 256.321C0.304314 226.218 0.405226 196.11 0.890164 166.009Z" fill="url(#paint3_linear)"/>
  <path d="M67.4989 0.607959C76.4641 -0.42592 100.253 0.159935 110.129 0.214091L194.732 1.06335C180.051 14.8853 166.899 29.1922 152.708 43.4376L68.1537 127.632C46.6342 148.098 32.7409 158.326 29.7894 190.084C0.685699 156.29 1.04262 142.427 0.102281 99.9342C-1.01283 49.5597 6.07171 7.9485 67.4989 0.607959Z" fill="url(#paint4_linear)"/>
  <path d="M67.4989 0.607959C76.4641 -0.42592 100.253 0.159935 110.129 0.214091L194.732 1.06335C180.051 14.8853 166.899 29.1922 152.708 43.4376L68.1537 127.632C46.6342 148.098 32.7409 158.326 29.7894 190.084C0.685699 156.29 1.04262 142.427 0.102281 99.9342C-1.01283 49.5597 6.07171 7.9485 67.4989 0.607959Z" fill="url(#paint5_linear)"/>
  <defs>
    <linearGradient id="paint0_linear" x1="97.3662" y1="0" x2="97.3662" y2="190.084" gradientUnits="userSpaceOnUse">
      <stop stop-color="#47BBF5"/>
      <stop offset="1" stop-color="#EF93C7"/>
    </linearGradient>
    <linearGradient id="paint1_linear" x1="97.3662" y1="-4.32132e-06" x2="205.5" y2="287" gradientUnits="userSpaceOnUse">
      <stop stop-color="#25D3FF"/>
      <stop offset="1" stop-color="#FF73C2"/>
    </linearGradient>
    <linearGradient id="paint2_linear" x1="97.3662" y1="0" x2="97.3662" y2="190.084" gradientUnits="userSpaceOnUse">
      <stop stop-color="#47BBF5"/>
      <stop offset="1" stop-color="#EF93C7"/>
    </linearGradient>
    <linearGradient id="paint3_linear" x1="97.3662" y1="-4.32132e-06" x2="205.5" y2="287" gradientUnits="userSpaceOnUse">
      <stop stop-color="#25D3FF"/>
      <stop offset="1" stop-color="#FF73C2"/>
    </linearGradient>
    <linearGradient id="paint4_linear" x1="97.3662" y1="0" x2="97.3662" y2="190.084" gradientUnits="userSpaceOnUse">
      <stop stop-color="#47BBF5"/>
      <stop offset="1" stop-color="#EF93C7"/>
    </linearGradient>
    <linearGradient id="paint5_linear" x1="97.3662" y1="-4.32132e-06" x2="205.5" y2="287" gradientUnits="userSpaceOnUse">
      <stop stop-color="#25D3FF"/>
      <stop offset="1" stop-color="#FF73C2"/>
    </linearGradient>
  </defs>
</svg>
