<svg width="1468" height="373" viewBox="0 0 1468 373" fill="none" xmlns="http://www.w3.org/2000/svg">
<path d="M381.55 39.7904C381.55 38.6858 382.445 37.7904 383.55 37.7904H429.35C430.455 37.7904 431.35 38.6858 431.35 39.7904V161.663H447.252L555.043 38.4734C555.423 38.0393 555.972 37.7904 556.549 37.7904H613.188C614.903 37.7904 615.823 39.8083 614.697 41.1027L492.031 182.169L616.832 327.429C617.946 328.726 617.024 330.732 615.315 330.732H556.148C555.561 330.732 555.003 330.474 554.623 330.027L446.834 203.093H431.35V328.732C431.35 329.837 430.454 330.732 429.35 330.732H383.55C382.445 330.732 381.55 329.837 381.55 328.732V39.7904Z" fill="#4F4F4F"/>
<path d="M692.487 330.732C671.562 330.732 653.149 326.129 637.246 316.922C621.623 307.715 609.347 294.882 600.419 278.421C591.771 261.961 587.446 242.989 587.446 221.507C587.446 201.14 591.771 183.006 600.419 167.103C609.068 151.201 621.065 138.646 636.409 129.439C651.754 120.233 669.191 115.629 688.72 115.629C708.529 115.629 725.966 119.954 741.031 128.602C756.097 137.251 767.815 149.387 776.184 165.011C784.833 180.355 789.158 198.211 789.158 218.577C789.158 221.925 789.018 225.552 788.739 229.458C788.46 233.085 788.042 236.991 787.484 241.176H638.502C639.897 250.94 642.966 259.45 647.708 266.703C652.73 273.678 659.008 279.119 666.54 283.025C674.073 286.93 682.722 288.883 692.487 288.883C704.204 288.883 714.667 286.512 723.873 281.769C733.359 277.026 739.915 270.749 743.542 262.937L784.973 276.747C776.603 293.487 764.188 306.739 747.727 316.504C731.267 325.989 712.853 330.732 692.487 330.732ZM737.684 202.675C737.405 194.026 735.033 186.214 730.569 179.239C726.105 172.265 720.246 166.824 712.993 162.918C705.739 158.733 697.648 156.641 688.72 156.641C680.909 156.641 673.515 158.594 666.54 162.5C659.566 166.406 653.567 171.846 648.545 178.821C643.803 185.517 640.734 193.468 639.339 202.675H737.684Z" fill="#4F4F4F"/>
<path d="M904.829 330.732C883.905 330.732 865.491 326.129 849.589 316.922C833.965 307.715 821.689 294.882 812.762 278.421C804.113 261.961 799.789 242.989 799.789 221.507C799.789 201.14 804.113 183.006 812.762 167.103C821.41 151.201 833.407 138.646 848.752 129.439C864.096 120.233 881.533 115.629 901.063 115.629C920.871 115.629 938.308 119.954 953.374 128.602C968.439 137.251 980.157 149.387 988.527 165.011C997.176 180.355 1001.5 198.211 1001.5 218.577C1001.5 221.925 1001.36 225.552 1001.08 229.458C1000.8 233.085 1000.38 236.991 999.826 241.176H850.844C852.239 250.94 855.308 259.45 860.051 266.703C865.073 273.678 871.35 279.119 878.883 283.025C886.416 286.93 895.064 288.883 904.829 288.883C916.547 288.883 927.009 286.512 936.216 281.769C945.702 277.026 952.258 270.749 955.885 262.937L997.315 276.747C988.945 293.487 976.53 306.739 960.07 316.504C943.609 325.989 925.196 330.732 904.829 330.732ZM950.026 202.675C949.747 194.026 947.375 186.214 942.912 179.239C938.448 172.265 932.589 166.824 925.335 162.918C918.081 158.733 909.99 156.641 901.063 156.641C893.251 156.641 885.858 158.594 878.883 162.5C871.908 166.406 865.91 171.846 860.888 178.821C856.145 185.517 853.076 193.468 851.681 202.675H950.026Z" fill="#4F4F4F"/>
<path d="M1051.99 149.527C1058.68 140.041 1068.17 132.09 1080.45 125.673C1092.72 118.977 1107.23 115.629 1123.97 115.629C1142.38 115.629 1158.56 120.093 1172.51 129.021C1186.46 137.949 1197.34 150.503 1205.15 166.685C1213.25 182.866 1217.29 201.698 1217.29 223.181C1217.29 244.663 1213.25 263.495 1205.15 279.677C1197.34 295.858 1186.32 308.413 1172.09 317.341C1158.14 326.268 1142.1 330.732 1123.97 330.732C1108.07 330.732 1094.53 327.942 1083.37 322.362C1072.21 316.783 1063.15 309.947 1056.17 301.857L1052.82 327.803H1010.14V26.4911H1057.43V150.782L1051.99 149.527ZM1166.65 223.181C1166.65 203.93 1161.49 188.307 1151.17 176.31C1141.13 164.313 1128.15 158.315 1112.25 158.315C1102.21 158.315 1093 160.826 1084.63 165.848C1076.54 170.87 1069.98 178.263 1064.96 188.028C1059.94 197.513 1057.43 209.231 1057.43 223.181C1057.43 237.13 1059.94 248.987 1064.96 258.752C1069.98 268.238 1076.54 275.492 1084.63 280.514C1093 285.535 1102.21 288.046 1112.25 288.046C1128.15 288.046 1141.13 282.048 1151.17 270.051C1161.49 258.055 1166.65 242.431 1166.65 223.181Z" fill="#4F4F4F"/>
<path d="M1354.44 327.803L1350.26 302.275C1343.56 311.203 1335.61 318.038 1326.4 322.781C1317.2 327.524 1304.92 329.895 1289.57 329.895C1275.07 329.895 1262.51 327.524 1251.91 322.781C1241.31 317.759 1233.08 310.924 1227.22 302.275C1221.64 293.347 1218.85 283.025 1218.85 271.307C1218.85 253.73 1225.27 239.083 1238.1 227.366C1251.21 215.369 1270.32 207.976 1295.43 205.186L1350.26 199.327V183.006C1350.26 176.31 1347.33 170.312 1341.47 165.011C1335.61 159.431 1326.26 156.641 1313.43 156.641C1302.27 156.641 1292.5 159.431 1284.13 165.011C1276.04 170.312 1270.6 178.402 1267.81 189.283L1226.8 174.218C1232.1 155.804 1242.56 141.436 1258.19 131.113C1274.09 120.79 1293.34 115.629 1315.94 115.629C1343.28 115.629 1363.79 122.464 1377.46 136.135C1391.13 149.806 1397.96 167.243 1397.96 188.446V327.803H1354.44ZM1350.26 235.735L1300.04 242.013C1289.44 243.408 1281.48 246.477 1276.18 251.219C1270.88 255.683 1268.23 261.403 1268.23 268.377C1268.23 274.794 1270.74 280.374 1275.76 285.117C1281.07 289.581 1288.18 291.813 1297.11 291.813C1308.55 291.813 1318.17 289.72 1325.98 285.535C1334.07 281.351 1340.07 275.352 1343.98 267.54C1348.16 259.729 1350.26 250.103 1350.26 238.665V235.735Z" fill="#4F4F4F"/>
<path d="M1413.82 118.559H1461.11V327.803H1413.82V118.559Z" fill="#4F4F4F"/>
<path d="M1415.79 78.2065C1421.65 84.0653 1428.9 86.9948 1437.55 86.9948C1445.92 86.9948 1453.03 84.0653 1458.89 78.2065C1464.75 72.3477 1467.68 65.3729 1467.68 57.2821C1467.68 48.6333 1464.75 41.3795 1458.89 35.5207C1453.03 29.6618 1445.92 26.7324 1437.55 26.7324C1428.9 26.7324 1421.65 29.6618 1415.79 35.5207C1409.93 41.3795 1407 48.6333 1407 57.2821C1407 65.3729 1409.93 72.3477 1415.79 78.2065Z" fill="url(#paint0_linear_0_1)"/>
<path d="M245.737 1.72319C294.652 -0.558731 328.428 26.4673 326.262 77.1569C323.507 141.641 252.374 122.49 249.683 183.861C247.611 231.079 285.153 231.257 310.96 256.82C322.375 268.129 327.441 287.938 326.382 303.621C325.188 324.025 315.632 343.034 299.969 356.166C284.52 369.09 266.306 372.706 246.697 370.985L133.096 257.689C124.842 249.423 116.227 240.227 107.892 232.199C50.4867 176.897 105.007 140.984 145.985 100.525L245.737 1.72319Z" fill="url(#paint1_linear_0_1)"/>
<path d="M245.737 1.72319C294.652 -0.558731 328.428 26.4673 326.262 77.1569C323.507 141.641 252.374 122.49 249.683 183.861C247.611 231.079 285.153 231.257 310.96 256.82C322.375 268.129 327.441 287.938 326.382 303.621C325.188 324.025 315.632 343.034 299.969 356.166C284.52 369.09 266.306 372.706 246.697 370.985L133.096 257.689C124.842 249.423 116.227 240.227 107.892 232.199C50.4867 176.897 105.007 140.984 145.985 100.525L245.737 1.72319Z" fill="url(#paint2_linear_0_1)"/>
<path d="M0.890164 166.009C4.58505 170.081 5.22015 173.918 8.00177 177.849C12.9201 184.796 20.3936 196.602 26.2522 202.53C45.0688 221.575 64.4713 240.517 83.5045 259.344C121.443 296.285 158.82 333.798 195.626 371.869C161.575 371.714 127.523 371.862 93.474 372.317C66.9994 372.556 42.3905 374.242 22.1782 353.584C-4.29893 326.529 0.648941 290.678 0.589862 256.321C0.304314 226.218 0.405226 196.11 0.890164 166.009Z" fill="url(#paint3_linear_0_1)"/>
<path d="M0.890164 166.009C4.58505 170.081 5.22015 173.918 8.00177 177.849C12.9201 184.796 20.3936 196.602 26.2522 202.53C45.0688 221.575 64.4713 240.517 83.5045 259.344C121.443 296.285 158.82 333.798 195.626 371.869C161.575 371.714 127.523 371.862 93.474 372.317C66.9994 372.556 42.3905 374.242 22.1782 353.584C-4.29893 326.529 0.648941 290.678 0.589862 256.321C0.304314 226.218 0.405226 196.11 0.890164 166.009Z" fill="url(#paint4_linear_0_1)"/>
<path d="M67.4989 0.607959C76.4641 -0.42592 100.253 0.159935 110.129 0.214091L194.732 1.06335C180.051 14.8853 166.899 29.1922 152.708 43.4376L68.1537 127.632C46.6342 148.098 32.7409 158.326 29.7894 190.084C0.685699 156.29 1.04262 142.427 0.102281 99.9342C-1.01283 49.5597 6.07171 7.9485 67.4989 0.607959Z" fill="url(#paint5_linear_0_1)"/>
<path d="M67.4989 0.607959C76.4641 -0.42592 100.253 0.159935 110.129 0.214091L194.732 1.06335C180.051 14.8853 166.899 29.1922 152.708 43.4376L68.1537 127.632C46.6342 148.098 32.7409 158.326 29.7894 190.084C0.685699 156.29 1.04262 142.427 0.102281 99.9342C-1.01283 49.5597 6.07171 7.9485 67.4989 0.607959Z" fill="url(#paint6_linear_0_1)"/>
<defs>
<linearGradient id="paint0_linear_0_1" x1="1425.09" y1="26.7324" x2="1440.8" y2="74.6095" gradientUnits="userSpaceOnUse">
<stop stop-color="#25D3FF"/>
<stop offset="1" stop-color="#FF73C2"/>
</linearGradient>
<linearGradient id="paint1_linear_0_1" x1="97.3662" y1="0" x2="97.3662" y2="190.084" gradientUnits="userSpaceOnUse">
<stop stop-color="#47BBF5"/>
<stop offset="1" stop-color="#EF93C7"/>
</linearGradient>
<linearGradient id="paint2_linear_0_1" x1="97.3662" y1="-4.32132e-06" x2="205.5" y2="287" gradientUnits="userSpaceOnUse">
<stop stop-color="#25D3FF"/>
<stop offset="1" stop-color="#FF73C2"/>
</linearGradient>
<linearGradient id="paint3_linear_0_1" x1="97.3662" y1="0" x2="97.3662" y2="190.084" gradientUnits="userSpaceOnUse">
<stop stop-color="#47BBF5"/>
<stop offset="1" stop-color="#EF93C7"/>
</linearGradient>
<linearGradient id="paint4_linear_0_1" x1="97.3662" y1="-4.32132e-06" x2="205.5" y2="287" gradientUnits="userSpaceOnUse">
<stop stop-color="#25D3FF"/>
<stop offset="1" stop-color="#FF73C2"/>
</linearGradient>
<linearGradient id="paint5_linear_0_1" x1="97.3662" y1="0" x2="97.3662" y2="190.084" gradientUnits="userSpaceOnUse">
<stop stop-color="#47BBF5"/>
<stop offset="1" stop-color="#EF93C7"/>
</linearGradient>
<linearGradient id="paint6_linear_0_1" x1="97.3662" y1="-4.32132e-06" x2="205.5" y2="287" gradientUnits="userSpaceOnUse">
<stop stop-color="#25D3FF"/>
<stop offset="1" stop-color="#FF73C2"/>
</linearGradient>
</defs>
</svg>
